<?xml version="1.0" encoding="UTF-8"?>
<!DOCTYPE svg PUBLIC "-//W3C//DTD SVG 1.1//EN" "http://www.w3.org/Graphics/SVG/1.1/DTD/svg11.dtd">
<svg xmlns="http://www.w3.org/2000/svg" version="1.1" width="300px" height="400px" style="shape-rendering:geometricPrecision; text-rendering:geometricPrecision; image-rendering:optimizeQuality; fill-rule:evenodd; clip-rule:evenodd" xmlns:xlink="http://www.w3.org/1999/xlink">
<g><path style="opacity:0.999" fill="#fefeff" d="M 91.5,95.5 C 94.3245,95.0807 96.4912,96.0807 98,98.5C 114.971,124.303 132.137,149.969 149.5,175.5C 167.376,148.913 185.376,122.413 203.5,96C 204.833,95.3333 206.167,95.3333 207.5,96C 221.101,124.71 236.101,152.543 252.5,179.5C 219.199,234.632 185.699,289.632 152,344.5C 150.333,345.833 148.667,345.833 147,344.5C 113.301,289.632 79.8015,234.632 46.5,179.5C 63.0393,152.427 78.0393,124.427 91.5,95.5 Z M 93.5,104.5 C 95.0744,104.937 96.2411,105.937 97,107.5C 112.128,130.925 127.628,154.092 143.5,177C 114.828,177.833 86.1609,177.667 57.5,176.5C 69.5266,152.447 81.5266,128.447 93.5,104.5 Z M 203.5,104.5 C 204.376,104.369 205.043,104.702 205.5,105.5C 217.756,129.011 229.756,152.678 241.5,176.5C 212.839,177.667 184.172,177.833 155.5,177C 171.893,153.034 187.893,128.867 203.5,104.5 Z M 55.5,184.5 C 117.999,183.335 180.665,183.168 243.5,184C 212.528,234.788 181.195,285.288 149.5,335.5C 117.905,285.307 86.572,234.973 55.5,184.5 Z"/></g>
</svg>
